# xmcd CD database file
#
# Track frame offsets:
#	150
#	16116
#	36180
#	57408
#	71464
#	86639
#	109005
#	125859
#
# Disc length: 1886 seconds
#
# Revision: 0
# Processed by: cddbd v1.4PL0 Copyright (c) Steve Scherf et al.
# Submitted via: CDex 1.50Beta7
#
DISCID=68075c08
DTITLE=32 Below - 32 Below
DYEAR=2002
DGENRE=Country
TTITLE0=It's Not Me, It's You
TTITLE1=Change of Heart
TTITLE2=What Do I Do
TTITLE3=Since I Found You
TTITLE4=Sorry Doesn't Cut It Anymore
TTITLE5=Watch You For Hours
TTITLE6=Lost Highway
TTITLE7=Take Me Home
EXTD=YEAR: 2002
EXTT0=
EXTT1=
EXTT2=
EXTT3=
EXTT4=
EXTT5=
EXTT6=
EXTT7=
PLAYORDER=
